<mxfile host="app.diagrams.net" agent="Mozilla/5.0 (Windows NT 10.0; Win64; x64) AppleWebKit/537.36 (KHTML, like Gecko) Chrome/139.0.0.0 Safari/537.36 Edg/139.0.0.0" version="28.1.1">
  <diagram name="Page-1" id="aL4qZfdP2bTSlWpYDKEl">
    <mxGraphModel dx="776" dy="1844" grid="1" gridSize="10" guides="1" tooltips="1" connect="1" arrows="1" fold="1" page="1" pageScale="1" pageWidth="1100" pageHeight="850" math="0" shadow="0">
      <root>
        <mxCell id="0" />
        <mxCell id="1" parent="0" />
        <mxCell id="7EXQS9-fsXvgveG_W9x2-2" style="edgeStyle=none;curved=1;rounded=0;orthogonalLoop=1;jettySize=auto;html=1;fontSize=12;startSize=8;endSize=8;strokeWidth=2;" edge="1" parent="1" source="7EXQS9-fsXvgveG_W9x2-1" target="7EXQS9-fsXvgveG_W9x2-3">
          <mxGeometry relative="1" as="geometry">
            <mxPoint x="369.99" y="-120" as="targetPoint" />
          </mxGeometry>
        </mxCell>
        <mxCell id="7EXQS9-fsXvgveG_W9x2-1" value="&lt;font style=&quot;font-size: 15px;&quot;&gt;Start&lt;/font&gt;" style="ellipse;whiteSpace=wrap;html=1;strokeWidth=2;" vertex="1" parent="1">
          <mxGeometry x="324.99" y="-220" width="90" height="40" as="geometry" />
        </mxCell>
        <mxCell id="7EXQS9-fsXvgveG_W9x2-5" value="" style="edgeStyle=none;curved=1;rounded=0;orthogonalLoop=1;jettySize=auto;html=1;fontSize=12;startSize=8;endSize=8;strokeWidth=2;" edge="1" parent="1" source="7EXQS9-fsXvgveG_W9x2-3" target="7EXQS9-fsXvgveG_W9x2-4">
          <mxGeometry relative="1" as="geometry" />
        </mxCell>
        <mxCell id="7EXQS9-fsXvgveG_W9x2-3" value="&lt;font style=&quot;font-size: 15px;&quot;&gt;Array Input&lt;/font&gt;" style="rounded=1;whiteSpace=wrap;html=1;strokeWidth=2;" vertex="1" parent="1">
          <mxGeometry x="312.49" y="-150" width="115" height="40" as="geometry" />
        </mxCell>
        <mxCell id="7EXQS9-fsXvgveG_W9x2-7" value="&lt;font style=&quot;font-size: 14px;&quot;&gt;True&lt;/font&gt;" style="edgeStyle=none;curved=1;rounded=0;orthogonalLoop=1;jettySize=auto;html=1;fontSize=12;startSize=8;endSize=8;strokeWidth=2;" edge="1" parent="1" source="7EXQS9-fsXvgveG_W9x2-4" target="7EXQS9-fsXvgveG_W9x2-6">
          <mxGeometry relative="1" as="geometry" />
        </mxCell>
        <mxCell id="7EXQS9-fsXvgveG_W9x2-38" value="" style="edgeStyle=none;curved=1;rounded=0;orthogonalLoop=1;jettySize=auto;html=1;fontSize=12;startSize=8;endSize=8;" edge="1" parent="1" source="7EXQS9-fsXvgveG_W9x2-4" target="7EXQS9-fsXvgveG_W9x2-37">
          <mxGeometry relative="1" as="geometry" />
        </mxCell>
        <mxCell id="7EXQS9-fsXvgveG_W9x2-39" value="&lt;font style=&quot;font-size: 15px;&quot;&gt;False&lt;/font&gt;" style="edgeLabel;html=1;align=center;verticalAlign=middle;resizable=0;points=[];fontSize=12;" vertex="1" connectable="0" parent="7EXQS9-fsXvgveG_W9x2-38">
          <mxGeometry x="0.1371" y="5" relative="1" as="geometry">
            <mxPoint x="1" as="offset" />
          </mxGeometry>
        </mxCell>
        <mxCell id="7EXQS9-fsXvgveG_W9x2-4" value="&lt;font style=&quot;font-size: 16px;&quot;&gt;i &amp;lt; array_length??&lt;/font&gt;" style="rhombus;whiteSpace=wrap;html=1;rounded=1;strokeWidth=2;" vertex="1" parent="1">
          <mxGeometry x="269.99" y="-70" width="200" height="80" as="geometry" />
        </mxCell>
        <mxCell id="7EXQS9-fsXvgveG_W9x2-9" value="" style="edgeStyle=none;curved=1;rounded=0;orthogonalLoop=1;jettySize=auto;html=1;fontSize=12;startSize=8;endSize=8;strokeWidth=2;" edge="1" parent="1" source="7EXQS9-fsXvgveG_W9x2-6" target="7EXQS9-fsXvgveG_W9x2-8">
          <mxGeometry relative="1" as="geometry" />
        </mxCell>
        <mxCell id="7EXQS9-fsXvgveG_W9x2-6" value="&lt;font style=&quot;font-size: 15px;&quot;&gt;int j = i&lt;/font&gt;" style="whiteSpace=wrap;html=1;rounded=1;strokeWidth=2;" vertex="1" parent="1">
          <mxGeometry x="322.49" y="60" width="95" height="40" as="geometry" />
        </mxCell>
        <mxCell id="7EXQS9-fsXvgveG_W9x2-11" value="" style="edgeStyle=none;curved=1;rounded=0;orthogonalLoop=1;jettySize=auto;html=1;fontSize=12;startSize=8;endSize=8;strokeWidth=2;" edge="1" parent="1" source="7EXQS9-fsXvgveG_W9x2-8" target="7EXQS9-fsXvgveG_W9x2-10">
          <mxGeometry relative="1" as="geometry" />
        </mxCell>
        <mxCell id="7EXQS9-fsXvgveG_W9x2-8" value="&lt;font style=&quot;font-size: 15px;&quot;&gt;int key = array[i]&lt;/font&gt;" style="whiteSpace=wrap;html=1;rounded=1;strokeWidth=2;" vertex="1" parent="1">
          <mxGeometry x="309.37" y="130" width="121.25" height="50" as="geometry" />
        </mxCell>
        <mxCell id="7EXQS9-fsXvgveG_W9x2-13" value="&lt;font style=&quot;font-size: 14px;&quot;&gt;True&lt;/font&gt;" style="edgeStyle=none;curved=1;rounded=0;orthogonalLoop=1;jettySize=auto;html=1;fontSize=12;startSize=8;endSize=8;strokeWidth=2;" edge="1" parent="1" source="7EXQS9-fsXvgveG_W9x2-10" target="7EXQS9-fsXvgveG_W9x2-12">
          <mxGeometry relative="1" as="geometry" />
        </mxCell>
        <mxCell id="7EXQS9-fsXvgveG_W9x2-10" value="&lt;font style=&quot;font-size: 15px;&quot;&gt;j &amp;gt; 0 &amp;amp;&amp;amp; array[j-1] &amp;gt; key??&lt;/font&gt;" style="rhombus;whiteSpace=wrap;html=1;rounded=1;strokeWidth=2;" vertex="1" parent="1">
          <mxGeometry x="252.49" y="220" width="235" height="80" as="geometry" />
        </mxCell>
        <mxCell id="7EXQS9-fsXvgveG_W9x2-15" value="" style="edgeStyle=none;curved=1;rounded=0;orthogonalLoop=1;jettySize=auto;html=1;fontSize=12;startSize=8;endSize=8;strokeWidth=2;" edge="1" parent="1" source="7EXQS9-fsXvgveG_W9x2-12" target="7EXQS9-fsXvgveG_W9x2-14">
          <mxGeometry relative="1" as="geometry" />
        </mxCell>
        <mxCell id="7EXQS9-fsXvgveG_W9x2-12" value="&lt;font style=&quot;font-size: 15px;&quot;&gt;array[j] = array[j-1]&lt;/font&gt;" style="whiteSpace=wrap;html=1;rounded=1;strokeWidth=2;" vertex="1" parent="1">
          <mxGeometry x="301.24" y="360" width="137.5" height="40" as="geometry" />
        </mxCell>
        <mxCell id="7EXQS9-fsXvgveG_W9x2-14" value="&lt;font style=&quot;font-size: 17px;&quot;&gt;j=j-1&lt;/font&gt;" style="whiteSpace=wrap;html=1;rounded=1;strokeWidth=2;" vertex="1" parent="1">
          <mxGeometry x="309.37" y="430" width="124.99" height="40" as="geometry" />
        </mxCell>
        <mxCell id="7EXQS9-fsXvgveG_W9x2-20" value="" style="endArrow=none;html=1;rounded=0;fontSize=12;startSize=8;endSize=8;curved=1;strokeWidth=2;" edge="1" parent="1">
          <mxGeometry width="50" height="50" relative="1" as="geometry">
            <mxPoint x="434.36" y="460" as="sourcePoint" />
            <mxPoint x="554.99" y="460" as="targetPoint" />
          </mxGeometry>
        </mxCell>
        <mxCell id="7EXQS9-fsXvgveG_W9x2-21" value="" style="endArrow=none;html=1;rounded=0;fontSize=12;startSize=8;endSize=8;curved=1;strokeWidth=2;" edge="1" parent="1">
          <mxGeometry width="50" height="50" relative="1" as="geometry">
            <mxPoint x="554.99" y="260" as="sourcePoint" />
            <mxPoint x="554.99" y="460" as="targetPoint" />
          </mxGeometry>
        </mxCell>
        <mxCell id="7EXQS9-fsXvgveG_W9x2-23" value="" style="endArrow=classic;html=1;rounded=0;fontSize=12;startSize=8;endSize=8;curved=1;entryX=1;entryY=0.5;entryDx=0;entryDy=0;strokeWidth=2;" edge="1" parent="1" target="7EXQS9-fsXvgveG_W9x2-10">
          <mxGeometry width="50" height="50" relative="1" as="geometry">
            <mxPoint x="554.99" y="260" as="sourcePoint" />
            <mxPoint x="604.99" y="210" as="targetPoint" />
          </mxGeometry>
        </mxCell>
        <mxCell id="7EXQS9-fsXvgveG_W9x2-24" value="&lt;font style=&quot;font-size: 14px;&quot;&gt;False&lt;/font&gt;" style="endArrow=none;html=1;rounded=0;fontSize=12;startSize=8;endSize=8;curved=1;endFill=0;strokeWidth=2;exitX=0;exitY=0.5;exitDx=0;exitDy=0;" edge="1" parent="1" source="7EXQS9-fsXvgveG_W9x2-10">
          <mxGeometry width="50" height="50" relative="1" as="geometry">
            <mxPoint x="269.99" y="259.38" as="sourcePoint" />
            <mxPoint x="192.49" y="259.88" as="targetPoint" />
          </mxGeometry>
        </mxCell>
        <mxCell id="7EXQS9-fsXvgveG_W9x2-25" value="" style="endArrow=classic;html=1;rounded=0;fontSize=12;startSize=8;endSize=8;curved=1;endFill=1;strokeWidth=2;" edge="1" parent="1">
          <mxGeometry width="50" height="50" relative="1" as="geometry">
            <mxPoint x="191.25" y="260" as="sourcePoint" />
            <mxPoint x="191.25" y="180" as="targetPoint" />
          </mxGeometry>
        </mxCell>
        <mxCell id="7EXQS9-fsXvgveG_W9x2-28" value="" style="edgeStyle=none;curved=1;rounded=0;orthogonalLoop=1;jettySize=auto;html=1;fontSize=12;startSize=8;endSize=8;" edge="1" parent="1" source="7EXQS9-fsXvgveG_W9x2-26" target="7EXQS9-fsXvgveG_W9x2-27">
          <mxGeometry relative="1" as="geometry" />
        </mxCell>
        <mxCell id="7EXQS9-fsXvgveG_W9x2-26" value="&lt;font style=&quot;font-size: 15px;&quot;&gt;int key = array[i]&lt;/font&gt;" style="whiteSpace=wrap;html=1;rounded=1;strokeWidth=2;" vertex="1" parent="1">
          <mxGeometry x="130" y="140" width="123.75" height="40" as="geometry" />
        </mxCell>
        <mxCell id="7EXQS9-fsXvgveG_W9x2-27" value="&lt;font style=&quot;font-size: 16px;&quot;&gt;i=i+1&lt;/font&gt;" style="whiteSpace=wrap;html=1;rounded=1;strokeWidth=2;" vertex="1" parent="1">
          <mxGeometry x="140.62" y="60" width="102.5" height="40" as="geometry" />
        </mxCell>
        <mxCell id="7EXQS9-fsXvgveG_W9x2-35" value="" style="endArrow=none;html=1;rounded=0;fontSize=12;startSize=8;endSize=8;curved=1;endFill=0;strokeWidth=2;exitX=0.5;exitY=0;exitDx=0;exitDy=0;" edge="1" parent="1" source="7EXQS9-fsXvgveG_W9x2-27">
          <mxGeometry width="50" height="50" relative="1" as="geometry">
            <mxPoint x="194.99" y="50" as="sourcePoint" />
            <mxPoint x="191.99" y="-30" as="targetPoint" />
          </mxGeometry>
        </mxCell>
        <mxCell id="7EXQS9-fsXvgveG_W9x2-36" value="" style="endArrow=classic;html=1;rounded=0;fontSize=12;startSize=8;endSize=8;curved=1;endFill=1;strokeWidth=2;entryX=0;entryY=0.5;entryDx=0;entryDy=0;" edge="1" parent="1">
          <mxGeometry width="50" height="50" relative="1" as="geometry">
            <mxPoint x="194.99" y="-30.379999999999995" as="sourcePoint" />
            <mxPoint x="269.99" y="-30.620000000000005" as="targetPoint" />
          </mxGeometry>
        </mxCell>
        <mxCell id="7EXQS9-fsXvgveG_W9x2-42" value="" style="edgeStyle=none;curved=1;rounded=0;orthogonalLoop=1;jettySize=auto;html=1;fontSize=12;startSize=8;endSize=8;" edge="1" parent="1" source="7EXQS9-fsXvgveG_W9x2-37" target="7EXQS9-fsXvgveG_W9x2-40">
          <mxGeometry relative="1" as="geometry" />
        </mxCell>
        <mxCell id="7EXQS9-fsXvgveG_W9x2-37" value="&lt;font style=&quot;font-size: 15px;&quot;&gt;Return array&lt;/font&gt;" style="shape=parallelogram;perimeter=parallelogramPerimeter;whiteSpace=wrap;html=1;fixedSize=1;rounded=1;strokeWidth=2;" vertex="1" parent="1">
          <mxGeometry x="564.99" y="-52.5" width="150" height="45" as="geometry" />
        </mxCell>
        <mxCell id="7EXQS9-fsXvgveG_W9x2-41" value="" style="edgeStyle=none;curved=1;rounded=0;orthogonalLoop=1;jettySize=auto;html=1;fontSize=12;startSize=8;endSize=8;endArrow=classic;endFill=1;" edge="1" parent="1" target="7EXQS9-fsXvgveG_W9x2-40">
          <mxGeometry relative="1" as="geometry">
            <mxPoint x="639.99" y="30" as="sourcePoint" />
          </mxGeometry>
        </mxCell>
        <mxCell id="7EXQS9-fsXvgveG_W9x2-40" value="&lt;font style=&quot;font-size: 15px;&quot;&gt;End&lt;/font&gt;" style="ellipse;whiteSpace=wrap;html=1;strokeWidth=2;" vertex="1" parent="1">
          <mxGeometry x="587.49" y="30" width="105" height="40" as="geometry" />
        </mxCell>
      </root>
    </mxGraphModel>
  </diagram>
</mxfile>
